<?xml version="1.0" standalone="no"?>
<!DOCTYPE svg PUBLIC "-//W3C//DTD SVG 20010904//EN"
 "http://www.w3.org/TR/2001/REC-SVG-20010904/DTD/svg10.dtd">
<svg version="1.0" xmlns="http://www.w3.org/2000/svg"
 width="512.000000pt" height="512.000000pt" viewBox="0 0 512.000000 512.000000"
 preserveAspectRatio="xMidYMid meet">
<metadata>
Created by potrace 1.14, written by Peter Selinger 2001-2017
</metadata>
<g transform="translate(0.000000,512.000000) scale(0.100000,-0.100000)"
fill="#000000" stroke="none">
<path d="M2992 4285 c-47 -21 -59 -57 -57 -182 l1 -105 32 -29 c55 -50 129
-33 157 35 15 39 13 213 -4 244 -12 22 -60 52 -83 52 -7 -1 -28 -7 -46 -15z"/>
<path d="M2215 4080 c-30 -12 -56 -45 -61 -79 -4 -24 5 -50 40 -114 54 -96 64
-110 93 -125 63 -34 143 16 143 90 0 26 -85 180 -115 208 -24 23 -69 32 -100
20z"/>
<path d="M3768 4073 c-15 -9 -33 -28 -40 -42 -7 -14 -28 -51 -47 -81 -47 -75
-51 -132 -11 -171 33 -33 77 -38 118 -13 15 9 50 56 79 107 54 95 62 138 32
174 -31 36 -93 49 -131 26z"/>
<path d="M3027 3664 c-1 -1 -36 -4 -77 -7 -400 -29 -752 -300 -890 -684 l-23
-63 -53 0 c-307 0 -622 -164 -816 -423 -100 -135 -179 -330 -194 -479 -4 -38
-12 -68 -18 -69 -162 -16 -274 -67 -376 -170 -64 -64 -114 -147 -141 -234 -14
-42 -19 -229 -8 -280 39 -181 196 -349 383 -408 l71 -22 1500 0 c1694 0 1558
-6 1673 80 110 82 162 193 158 335 -2 72 -7 96 -33 150 -61 131 -178 217 -317
235 -42 5 -55 17 -56 50 -1 11 -12 52 -26 90 -14 39 -28 78 -31 88 -3 9 -9 17
-14 17 -5 0 9 16 31 36 91 82 191 245 240 391 40 120 50 177 55 298 15 422
-228 808 -615 979 -53 24 -228 79 -238 75 -1 0 -29 2 -62 6 -71 8 -120 12
-123 9z"/>
<path d="M1609 3481 c-34 -34 -39 -93 -11 -126 34 -40 191 -125 219 -120 10 2
23 4 30 4 18 1 63 49 64 69 5 71 -13 94 -123 157 -95 55 -136 59 -179 16z"/>
<path d="M4266 3456 c-76 -45 -92 -59 -103 -90 -17 -51 3 -101 49 -120 40 -17
71 -12 128 22 25 15 56 33 70 40 85 44 107 117 51 173 -45 45 -87 40 -195 -25z"/>
<path d="M4378 2701 c-27 -24 -33 -36 -33 -71 0 -35 6 -47 34 -72 l33 -30 120
4 c120 3 120 3 144 33 25 32 31 82 14 116 -20 37 -63 49 -174 49 -102 0 -107
-1 -138 -29z"/>
<path d="M4241 2022 c-41 -6 -70 -32 -80 -70 -17 -59 6 -90 107 -149 48 -28
94 -52 102 -53 40 -6 64 2 91 29 55 56 30 131 -58 176 -21 10 -50 27 -64 37
-37 24 -70 35 -98 30z"/>
</g>
</svg>
